<?xml version="1.0" standalone="no"?>
<!DOCTYPE svg PUBLIC "-//W3C//DTD SVG 20010904//EN"
 "http://www.w3.org/TR/2001/REC-SVG-20010904/DTD/svg10.dtd">
<svg version="1.0" xmlns="http://www.w3.org/2000/svg"
 width="187.000000pt" height="186.000000pt" viewBox="0 0 187.000000 186.000000"
 preserveAspectRatio="xMidYMid meet">

<g transform="translate(0.000000,186.000000) scale(0.100000,-0.100000)"
fill="#000000" stroke="none">
<path d="M0 930 l0 -930 408 1 c382 1 403 2 339 15 -114 25 -119 28 -111 71 4
21 7 39 8 40 1 1 33 -8 71 -19 55 -16 101 -21 213 -22 l142 -1 -6 -42 -6 -43
406 0 406 0 0 930 0 930 -407 -1 c-364 -1 -401 -2 -343 -14 36 -7 90 -22 120
-32 l55 -20 -3 -39 c-2 -21 -5 -40 -7 -42 -2 -2 -28 5 -58 16 -82 31 -197 52
-284 52 l-79 0 4 40 4 40 -436 0 -436 0 0 -930z m910 461 l0 -78 -39 -7 c-22
-3 -46 -9 -55 -12 -14 -5 -16 5 -16 79 l0 86 28 4 c15 2 39 5 55 6 l27 1 0
-79z"/>
</g>
</svg>
